<svg id="Layer_1" data-name="Layer 1" xmlns="http://www.w3.org/2000/svg" viewBox="0 0 297.14 336.55"><defs><style>.cls-1{opacity:0.3;}.cls-2{fill:#a39685;}.cls-3{fill:#736656;}.cls-4{fill:#403531;}.cls-5{fill:#544540;}.cls-6{fill:#836e69;}.cls-7{fill:#685750;}.cls-8{fill:#423a32;}.cls-9{fill:#f0c6b4;}.cls-10{fill:#377691;}.cls-11{fill:#428aa8;}.cls-12{fill:#0a0808;}.cls-13{fill:#211a1a;}.cls-14{fill:#362c29;}.cls-15{fill:#574943;}.cls-16{fill:#b5afa7;}.cls-17{fill:#418080;}.cls-18{fill:#389998;}.cls-19{fill:#3e6669;}.cls-20{fill:#8ccccb;}.cls-21{fill:#dbb276;}.cls-22{fill:#a87c49;}.cls-23{fill:#b88f5a;}.cls-24{fill:#a16739;}.cls-25{fill:#d8d1c7;}.cls-26{fill:#a39c95;}.cls-27{fill:#e0dedc;}.cls-28{fill:#f4efe9;}.cls-29{fill:#d1d1d1;}.cls-30{fill:#275c78;}.cls-31{fill:#eef3f5;}.cls-32{fill:#ff9f3d;}.cls-33{fill:#dde65c;}.cls-34{fill:#944e39;}.cls-35{fill:#efc58b;}.cls-36{fill:#29617d;}.cls-37{fill:#4290b8;}.cls-38{fill:#17435c;}.cls-39{fill:#f7f2e8;}.cls-40{fill:#991f16;}.cls-41{fill:#fa5c52;}.cls-42{fill:#c84030;}.cls-43{fill:#bf261b;}.cls-44{fill:#e6e1dd;}.cls-45{fill:#853e2a;}.cls-46{fill:#c7a495;}</style></defs><polygon class="cls-1" points="0 197.37 85.98 147.72 94.53 147.72 297.14 264.42 297.14 269.36 211.15 318.99 202.6 318.99 160.41 294.74 87.97 336.55 7.48 290.09 79.92 248.27 0 202.3 0 197.37"/><polygon class="cls-2" points="5.49 205.35 10.98 208.52 30.82 137.92 14.22 93.53 5.49 92.57 5.49 205.35"/><polygon class="cls-3" points="10.98 208.52 105.48 153.94 105.48 41.18 10.98 95.74 10.98 208.52"/><polygon class="cls-3" points="90.59 189.69 140.34 160.96 140.34 107.6 90.59 136.32 83.09 153.97 90.59 189.69"/><polygon class="cls-2" points="15.65 93.05 90.59 136.32 90.59 189.69 87.43 191.5 18.8 151.9 15.65 146.42 15.65 93.05"/><polygon class="cls-1" points="18.62 150.8 87.12 190.34 87.12 165.61 18.62 126.06 18.62 150.8"/><polygon class="cls-2" points="17.62 149.47 86.11 189.02 86.11 164.29 17.62 124.75 17.62 149.47"/><polygon class="cls-4" points="57.03 168.7 57.91 168.2 57.91 167.75 56.36 167.88 57.03 168.7"/><polygon class="cls-5" points="57.03 168.26 57.91 167.75 56.59 165.47 46.35 160.55 57.03 168.26"/><polygon class="cls-6" points="55.71 165.97 56.59 165.47 47.21 160.07 46.35 160.55 55.71 165.97"/><polygon class="cls-7" points="45.03 161.32 46.35 160.55 55.71 165.97 57.03 168.26 57.03 168.7 55.71 169.46 46.35 164.04 45.03 161.77 45.03 161.32"/><polygon class="cls-3" points="86.11 189.02 87.43 188.26 87.43 163.56 86.11 164.29 86.11 189.02"/><polygon class="cls-8" points="86.11 164.29 87.43 163.56 18.93 124.07 17.62 124.75 86.11 164.29"/><polygon class="cls-2" points="17.62 123.66 86.11 163.2 86.11 138.47 17.62 98.93 17.62 123.66"/><polygon class="cls-4" points="57.03 142.41 57.91 141.91 57.91 141.46 56.36 141.59 57.03 142.41"/><polygon class="cls-5" points="57.03 141.97 57.91 141.46 56.59 139.18 46.35 134.26 57.03 141.97"/><polygon class="cls-6" points="55.71 139.68 56.59 139.18 47.21 133.79 46.35 134.26 55.71 139.68"/><polygon class="cls-7" points="45.03 135.03 46.35 134.26 55.71 139.68 57.03 141.97 57.03 142.41 55.71 143.16 46.35 137.74 45.03 135.49 45.03 135.03"/><polygon class="cls-3" points="86.11 163.2 87.43 162.44 87.43 137.75 86.11 138.47 86.11 163.2"/><polygon class="cls-2" points="86.11 138.47 87.43 137.75 18.93 98.26 17.62 98.93 86.11 138.47"/><polygon class="cls-9" points="134.68 228.1 134.24 234.29 132.91 239.26 138 243.24 143.31 240.59 150.16 233.49 158.59 230.97 157.12 219.58 150.43 220.12 134.68 228.1"/><polygon class="cls-10" points="128.08 209.08 133.63 229.1 145.91 229.1 151.37 219.64 146.51 199.13 128.08 209.08"/><polygon class="cls-9" points="173.16 233.74 180.4 234.4 188.94 233.49 192.83 236.83 191.4 245.46 173.16 252.42 167.3 256.62 159.56 257.4 156.02 252.86 156.57 243.24 173.16 233.74"/><polygon class="cls-11" points="176.37 182.88 174.81 217.32 175.48 233.74 168.18 243.24 155.14 243.24 152.7 203.88 176.37 182.88"/><polygon class="cls-12" points="96.16 238.89 101.18 241.78 94.69 204.3 90.78 188.86 88.36 186.34 83.9 186.43 96.16 238.89"/><polygon class="cls-13" points="7.48 290.09 20.01 221.95 22.3 216.4 29.25 217.82 26.26 224.86 26.01 224.76 12.51 292.98 7.48 290.09"/><polygon class="cls-14" points="22.3 216.4 27.33 219.31 34.34 214.7 26.26 212.11 22.3 216.4"/><polygon class="cls-14" points="80.44 180.81 84.8 185.33 89.42 183.44 84.41 180.56 80.44 180.81"/><polygon class="cls-15" points="26.26 212.11 31.29 215.01 60.56 200.4 85.48 183.72 80.44 180.81 26.26 212.11"/><polygon class="cls-12" points="84.85 187.53 31.92 218.09 29.38 220.85 27.84 224.6 15.58 291.21 12.51 292.98 25.05 224.86 27.33 219.31 31.29 215.01 85.48 183.72 89.42 183.44 91.72 186.38 104.26 240.01 101.18 241.78 88.92 189.34 87.38 187.36 84.85 187.53"/><polygon class="cls-13" points="100.61 241.92 113.95 244.85 111.06 257.58 106.2 257.58 100.61 241.92"/><polygon class="cls-14" points="40.28 212.22 106.2 242.49 106.2 257.58 40.28 219.52 40.28 212.22"/><polygon class="cls-12" points="111.06 240.21 155.92 224.38 155.92 231.68 111.06 257.58 111.06 240.21"/><polygon class="cls-16" points="85.15 183.53 90.01 183.53 155.92 221.59 155.92 224.38 111.06 250.28 106.2 250.28 40.28 212.22 40.28 209.42 85.15 183.53"/><polygon class="cls-17" points="100.61 237.58 113.95 240.48 111.06 250.28 106.2 250.28 100.61 237.58"/><polygon class="cls-18" points="40.28 207.87 106.2 238.12 106.2 250.28 40.28 212.22 40.28 207.87"/><polygon class="cls-19" points="111.06 235.84 155.92 220.02 155.92 224.38 111.06 250.28 111.06 235.84"/><polygon class="cls-20" points="85.15 179.18 90.01 179.18 155.92 217.24 155.92 220.02 111.06 245.92 106.2 245.92 40.28 207.87 40.28 205.08 85.15 179.18"/><polygon class="cls-12" points="171.62 282.46 176.65 285.37 170.14 247.86 166.24 232.44 163.83 229.91 159.35 230 171.62 282.46"/><polygon class="cls-13" points="82.93 333.65 95.48 265.53 97.77 259.98 104.72 261.39 101.72 268.44 101.48 268.33 87.97 336.55 82.93 333.65"/><polygon class="cls-14" points="97.77 259.98 102.79 262.88 109.79 258.28 101.72 255.67 97.77 259.98"/><polygon class="cls-14" points="155.92 224.38 160.28 228.9 164.9 227.02 159.87 224.13 155.92 224.38"/><polygon class="cls-15" points="101.72 255.67 106.75 258.58 136.02 243.97 160.94 227.29 155.92 224.38 101.72 255.67"/><polygon class="cls-12" points="160.31 231.1 107.38 261.66 104.84 264.42 103.31 268.16 91.04 334.78 87.97 336.55 100.51 268.44 102.79 262.88 106.75 258.58 160.94 227.29 164.9 227.02 167.18 229.95 179.72 283.59 176.65 285.37 164.39 232.9 162.85 230.93 160.31 231.1"/><polygon class="cls-10" points="126.28 184.54 105.16 190.84 103.4 169.13 112.02 169.13 126.28 184.54"/><polygon class="cls-11" points="152.7 203.88 105.48 229.1 85.34 227.99 65.36 217.32 57.91 201.65 106.16 187.3 140.1 178.46 170.12 176.47 176.37 182.88 166.47 196.42 152.7 203.88"/><polygon class="cls-2" points="191.63 312.52 197.12 315.69 216.95 245.08 200.34 200.7 191.63 199.75 191.63 312.52"/><polygon class="cls-3" points="197.12 315.69 291.61 261.13 291.61 148.37 197.12 202.92 197.12 315.69"/><polygon class="cls-21" points="85.98 31.26 94.53 31.26 297.14 147.95 297.14 152.9 211.15 202.53 202.6 202.53 0 85.83 0 80.9 85.98 31.26"/><rect class="cls-22" x="202.6" y="202.53" width="8.55" height="3.56"/><polygon class="cls-23" points="0 89.39 202.6 206.09 202.6 202.53 0 85.83 0 89.39"/><polygon class="cls-24" points="211.15 206.09 297.14 156.45 297.14 152.9 211.15 202.53 211.15 206.09"/><polygon class="cls-25" points="143.63 59.67 138.63 62.57 130.17 57.68 135.17 54.79 143.63 59.67"/><polygon class="cls-26" points="147.79 73.17 138.63 78.46 138.63 62.57 143.63 59.67 147.79 73.17"/><polygon class="cls-27" points="138.63 62.57 130.17 57.68 130.17 73.57 138.63 78.46 138.63 62.57"/><polygon class="cls-28" points="141 72.99 138.92 74.19 126.12 66.8 128.2 65.59 141 72.99"/><polygon class="cls-4" points="141 79.82 138.92 81.02 137.48 77 138.92 74.19 141 72.99 141 79.82"/><polygon class="cls-7" points="138.92 74.19 126.12 66.8 126.12 73.63 138.92 81.02 138.92 74.19"/><polygon class="cls-28" points="141 42.41 138.92 43.62 126.12 36.22 128.2 35.03 141 42.41"/><polygon class="cls-29" points="141 72.99 138.92 74.19 138.92 43.62 141 42.41 141 72.99"/><polygon class="cls-27" points="138.92 43.62 126.12 36.22 126.12 66.8 138.92 74.19 138.92 43.62"/><polygon class="cls-26" points="126.84 37.48 126.84 66.38 138.19 72.93 138.19 44.03 126.84 37.48"/><polygon class="cls-1" points="240.68 127.94 227.78 135.39 143.87 86.95 156.77 79.5 240.68 127.94"/><polygon class="cls-4" points="204.4 124.64 203.15 121.51 223.1 111.79 223.1 113.81 204.4 124.64"/><polygon class="cls-7" points="204.4 124.64 160.37 99.23 160.37 97.21 184.83 105.72 204.4 122.61 204.4 124.64"/><polygon class="cls-6" points="204.4 122.61 160.37 97.21 179.09 86.38 223.1 111.79 204.4 122.61"/><polygon class="cls-4" points="210.74 107.87 208.51 109.16 177.5 76.81 179.72 75.51 204.45 89.79 210.74 107.87"/><polygon class="cls-5" points="208.51 109.16 183.78 94.89 177.5 76.81 202.22 91.08 208.51 109.16"/><polygon class="cls-1" points="206.95 121.13 206.94 123.2 223.1 113.81 223.1 111.79 179.09 86.38 162.95 95.72 206.95 121.13"/><polygon class="cls-28" points="231.45 102.47 227.78 104.59 143.87 56.15 147.55 54.03 231.45 102.47"/><polygon class="cls-4" points="231.45 114.54 227.78 116.67 225.24 109.57 227.78 104.59 231.45 102.47 231.45 114.54"/><polygon class="cls-7" points="227.78 104.59 143.87 56.15 143.87 68.22 227.78 116.67 227.78 104.59"/><polygon class="cls-28" points="231.45 48.44 227.78 50.56 143.87 2.12 147.55 0 231.45 48.44"/><polygon class="cls-29" points="231.45 102.47 227.78 104.59 227.78 50.56 231.45 48.44 231.45 102.47"/><polygon class="cls-27" points="227.78 50.56 143.87 2.12 143.87 56.15 227.78 104.59 227.78 50.56"/><polygon class="cls-26" points="226.49 101.63 226.49 102.38 145.16 55.41 145.16 4.33 145.81 4.72 145.81 55.03 226.49 101.63"/><polygon class="cls-30" points="226.49 51.29 226.49 101.63 145.81 55.03 145.81 4.72 226.49 51.29"/><polygon class="cls-20" points="185.17 30.42 184.3 30.93 149.27 10.7 150.14 10.2 185.17 30.42"/><polygon class="cls-19" points="185.17 33.53 184.3 34.04 184.3 30.93 185.17 30.42 185.17 33.53"/><polygon class="cls-29" points="185.17 60.64 184.3 61.14 184.3 34.04 185.17 33.53 185.17 60.64"/><polygon class="cls-18" points="184.3 30.93 149.27 10.7 149.27 13.81 184.3 34.04 184.3 30.93"/><polygon class="cls-31" points="149.27 40.92 184.3 61.14 184.3 34.04 149.27 13.81 149.27 40.92"/><polygon class="cls-13" points="151.11 16.92 151.11 40.14 182.46 58.26 182.46 35.03 151.11 16.92"/><polygon class="cls-31" points="158.38 24.2 152.67 20.9 152.67 20.08 158.38 23.37 158.38 24.2"/><polygon class="cls-20" points="156.51 25.09 152.67 22.87 152.67 22.05 156.51 24.26 156.51 25.09"/><polygon class="cls-16" points="154.59 25.95 152.67 24.84 152.67 24.02 154.59 25.13 154.59 25.95"/><polygon class="cls-20" points="165.36 32.16 155.1 26.24 155.1 25.42 165.36 31.34 165.36 32.16"/><polygon class="cls-31" points="160.82 33.58 153.49 29.35 153.49 28.52 160.82 32.76 160.82 33.58"/><polygon class="cls-31" points="158.98 34.48 155.8 32.65 155.8 31.83 158.98 33.66 158.98 34.48"/><polygon class="cls-31" points="160.37 39.32 154.59 35.99 154.59 35.17 160.37 38.5 160.37 39.32"/><polygon class="cls-31" points="162.37 42.45 154.59 37.96 154.59 37.14 162.37 41.63 162.37 42.45"/><polygon class="cls-20" points="156.25 40.89 154.59 39.93 154.59 39.11 156.25 40.07 156.25 40.89"/><polygon class="cls-31" points="166.31 46.69 157.39 41.54 157.39 40.72 166.31 45.87 166.31 46.69"/><polygon class="cls-20" points="166.71 44.96 162.94 42.78 162.94 41.95 166.71 44.13 166.71 44.96"/><polygon class="cls-16" points="169.31 46.45 167.69 45.52 167.69 44.7 169.31 45.64 169.31 46.45"/><polygon class="cls-16" points="168.84 48.16 167.23 47.23 167.23 46.4 168.84 47.34 168.84 48.16"/><polygon class="cls-16" points="171.93 47.97 170.32 47.04 170.32 46.22 171.93 47.15 171.93 47.97"/><polygon class="cls-20" points="180.89 52.32 172.81 47.66 172.81 48.48 180.89 53.14 180.89 52.32"/><polygon class="cls-32" points="175.95 51.44 169.76 47.87 169.76 48.69 175.95 52.26 175.95 51.44"/><polygon class="cls-16" points="163.84 41.33 160.98 39.68 160.98 38.86 163.84 40.51 163.84 41.33"/><polygon class="cls-20" points="169.58 44.65 164.88 41.93 164.88 41.11 169.58 43.82 169.58 44.65"/><polygon class="cls-32" points="180.89 47.14 159.96 35.05 159.96 34.23 180.89 46.31 180.89 47.14"/><polygon class="cls-16" points="154.87 32.11 153.49 31.32 153.49 30.5 154.87 31.29 154.87 32.11"/><polygon class="cls-16" points="153.08 27.07 152.72 26.86 152.72 26.04 153.08 26.24 153.08 27.07"/><polygon class="cls-16" points="154.04 33.7 153.68 33.5 153.68 32.67 154.04 32.88 154.04 33.7"/><polygon class="cls-16" points="162.37 34.48 161.15 33.77 161.15 32.95 162.37 33.66 162.37 34.48"/><polygon class="cls-16" points="157.47 25.64 157.02 25.38 157.02 24.56 157.47 24.82 157.47 25.64"/><polygon class="cls-16" points="158.98 26.51 158.04 25.97 158.04 25.15 158.98 25.69 158.98 26.51"/><polygon class="cls-16" points="160.37 25.34 158.62 24.33 158.62 23.51 160.37 24.52 160.37 25.34"/><polygon class="cls-20" points="222.38 55.15 221.5 55.65 190.44 37.72 191.31 37.21 222.38 55.15"/><polygon class="cls-19" points="222.38 58.26 221.5 58.76 221.5 55.65 222.38 55.15 222.38 58.26"/><polygon class="cls-29" points="222.38 94.31 221.5 94.82 221.5 58.76 222.38 58.26 222.38 94.31"/><polygon class="cls-18" points="221.5 55.65 190.44 37.72 190.44 40.82 221.5 58.76 221.5 55.65"/><polygon class="cls-31" points="190.44 76.88 221.5 94.82 221.5 58.76 190.44 40.82 190.44 76.88"/><polygon class="cls-13" points="192.28 43.93 192.28 76.11 219.66 91.93 219.66 59.75 192.28 43.93"/><polygon class="cls-20" points="196.07 49.2 194.46 48.27 194.46 47.47 196.07 48.4 196.07 49.2"/><polygon class="cls-20" points="196.07 51.1 194.46 50.17 194.46 49.38 196.07 50.31 196.07 51.1"/><polygon class="cls-20" points="198.85 50.8 197.25 49.88 197.25 49.08 198.85 50.01 198.85 50.8"/><polygon class="cls-16" points="201.48 52.32 199.25 51.03 199.25 50.24 201.48 51.53 201.48 52.32"/><polygon class="cls-31" points="202.35 54.73 196.72 51.48 196.72 50.68 202.35 53.94 202.35 54.73"/><polygon class="cls-31" points="199.14 54.87 194.46 52.17 194.46 51.38 199.14 54.08 199.14 54.87"/><polygon class="cls-31" points="208.07 61.93 194.46 54.08 194.46 53.28 208.07 61.14 208.07 61.93"/><polygon class="cls-31" points="200.65 59.55 194.46 55.98 194.46 55.19 200.65 58.76 200.65 59.55"/><polygon class="cls-16" points="196.18 58.88 194.46 57.89 194.46 57.09 196.18 58.08 196.18 58.88"/><polygon class="cls-20" points="199.66 60.89 197.03 59.37 197.03 58.58 199.66 60.1 199.66 60.89"/><polygon class="cls-20" points="205.36 62.27 201.1 59.82 201.1 59.02 205.36 61.48 205.36 62.27"/><polygon class="cls-16" points="207.47 63.49 205.94 62.61 205.94 61.81 207.47 62.7 207.47 63.49"/><polygon class="cls-32" points="210.01 63.05 208.96 62.45 208.96 61.65 210.01 62.26 210.01 63.05"/><polygon class="cls-16" points="211.42 63.87 210.37 63.26 210.37 62.46 211.42 63.07 211.42 63.87"/><polygon class="cls-32" points="213.91 65.31 212.85 64.69 212.85 63.9 213.91 64.51 213.91 65.31"/><polygon class="cls-20" points="217.53 67.39 214.25 65.5 214.25 64.71 217.53 66.6 217.53 67.39"/><polygon class="cls-20" points="202.44 56.78 199.66 55.17 199.66 54.38 202.44 55.98 202.44 56.78"/><polygon class="cls-16" points="204.98 58.24 203.41 57.34 203.41 56.54 204.98 57.45 204.98 58.24"/><polygon class="cls-32" points="209.42 60.81 206.35 59.04 206.35 58.24 209.42 60.01 209.42 60.81"/><polygon class="cls-20" points="211.58 62.06 210.2 61.26 210.2 60.46 211.58 61.26 211.58 62.06"/><polygon class="cls-20" points="213.72 63.29 212.34 62.49 212.34 61.7 213.72 62.49 213.72 63.29"/><polygon class="cls-20" points="208.61 58.34 202.97 55.09 202.97 54.3 208.61 57.55 208.61 58.34"/><polygon class="cls-16" points="210.77 59.59 209.27 58.72 209.27 57.93 210.77 58.79 210.77 59.59"/><polygon class="cls-16" points="194.9 60.18 194.55 59.98 194.55 59.19 194.9 59.39 194.9 60.18"/><polygon class="cls-16" points="195.99 62.77 194.54 61.93 194.54 61.11 195.99 61.94 195.99 62.77"/><polygon class="cls-31" points="201.18 65.76 197 63.35 197 62.53 201.18 64.94 201.18 65.76"/><polygon class="cls-31" points="199.65 68.82 195.47 66.41 195.47 65.59 199.65 68 199.65 68.82"/><polygon class="cls-20" points="197 69.26 195.47 68.38 195.47 67.56 197 68.44 197 69.26"/><polygon class="cls-20" points="202.31 72.33 198.4 70.07 198.4 69.25 202.31 71.51 202.31 72.33"/><polygon class="cls-20" points="205.88 74.39 204.42 73.55 204.42 72.73 205.88 73.58 205.88 74.39"/><polygon class="cls-16" points="203.61 73.08 202.88 72.66 202.88 71.84 203.61 72.26 203.61 73.08"/><polygon class="cls-16" points="198.08 69.89 197.36 69.47 197.36 68.65 198.08 69.07 198.08 69.89"/><polygon class="cls-20" points="197 71.23 195.47 70.35 195.47 69.53 197 70.41 197 71.23"/><polygon class="cls-20" points="196.44 72.88 195.47 72.32 195.47 71.5 196.44 72.06 196.44 72.88"/><polygon class="cls-31" points="203.88 77.17 197.98 73.77 197.98 72.95 203.88 76.35 203.88 77.17"/><polygon class="cls-31" points="200.36 77.21 195.45 74.38 195.45 73.56 200.36 76.39 200.36 77.21"/><polygon class="cls-20" points="204.07 79.36 200.99 77.57 200.98 76.75 204.07 78.54 204.07 79.36"/><polygon class="cls-20" points="217.36 87.03 213.58 84.84 213.58 84.02 217.36 86.2 217.36 87.03"/><polygon class="cls-16" points="206.13 80.54 204.86 79.81 204.86 78.99 206.13 79.72 206.13 80.54"/><polygon class="cls-32" points="212.59 84.27 207.7 81.45 207.7 80.63 212.59 83.45 212.59 84.27"/><polygon class="cls-20" points="210.32 80.9 204.42 77.49 204.42 76.67 210.32 80.08 210.32 80.9"/><polygon class="cls-20" points="202.31 74.3 198.4 72.04 198.4 71.22 202.31 73.48 202.31 74.3"/><polygon class="cls-20" points="205.88 76.36 204.42 75.53 204.42 74.7 205.88 75.54 205.88 76.36"/><polygon class="cls-16" points="203.61 75.05 202.88 74.63 202.88 73.81 203.61 74.23 203.61 75.05"/><polygon class="cls-16" points="198.08 71.86 197.36 71.44 197.36 70.62 198.08 71.04 198.08 71.86"/><polygon class="cls-16" points="197.56 73.53 196.82 73.1 196.82 72.28 197.56 72.71 197.56 73.53"/><polygon class="cls-20" points="204.48 71.61 200.29 69.2 200.29 68.37 204.48 70.79 204.48 71.61"/><polygon class="cls-20" points="208.34 73.83 205.68 72.31 205.68 71.48 208.34 73.02 208.34 73.83"/><polygon class="cls-20" points="212.98 76.52 208.99 74.21 208.99 73.39 212.98 75.69 212.98 76.52"/><polygon class="cls-20" points="216.68 78.65 214.31 77.28 214.31 76.46 216.68 77.83 216.68 78.65"/><polygon class="cls-20" points="206.57 68.87 202.38 66.46 202.38 65.64 206.57 68.06 206.57 68.87"/><polygon class="cls-16" points="194.9 64.11 194.54 63.9 194.54 63.08 194.9 63.28 194.9 64.11"/><polygon class="cls-16" points="194.9 76.06 194.54 75.85 194.54 75.03 194.9 75.24 194.9 76.06"/><polygon class="cls-20" points="201.36 55 200.48 55.51 169.42 37.57 170.29 37.07 201.36 55"/><polygon class="cls-19" points="201.36 58.11 200.48 58.61 200.48 55.51 201.36 55 201.36 58.11"/><polygon class="cls-29" points="201.36 78.95 200.48 79.45 200.48 58.61 201.36 58.11 201.36 78.95"/><polygon class="cls-18" points="200.48 55.51 169.42 37.57 169.42 40.68 200.48 58.61 200.48 55.51"/><polygon class="cls-31" points="169.42 61.52 200.48 79.45 200.48 58.61 169.42 40.68 169.42 61.52"/><polygon class="cls-13" points="171.26 43.79 171.26 60.74 198.64 76.57 198.64 59.61 171.26 43.79"/><polygon class="cls-16" points="174.34 47.54 172.9 46.71 172.9 45.89 174.34 46.72 174.34 47.54"/><polygon class="cls-31" points="179.54 50.54 175.35 48.13 175.35 47.3 179.54 49.72 179.54 50.54"/><polygon class="cls-31" points="178.01 53.6 173.82 51.19 173.82 50.36 178.01 52.78 178.01 53.6"/><polygon class="cls-20" points="175.35 54.04 173.82 53.15 173.82 52.33 175.35 53.21 175.35 54.04"/><polygon class="cls-20" points="180.67 57.1 176.76 54.85 176.76 54.03 180.67 56.29 180.67 57.1"/><polygon class="cls-20" points="184.25 59.17 182.78 58.33 182.78 57.51 184.25 58.35 184.25 59.17"/><polygon class="cls-16" points="181.97 57.86 181.24 57.44 181.24 56.61 181.97 57.04 181.97 57.86"/><polygon class="cls-16" points="176.45 54.67 175.71 54.25 175.71 53.42 176.45 53.85 176.45 54.67"/><polygon class="cls-20" points="175.35 56.01 173.82 55.12 173.82 54.3 175.35 55.19 175.35 56.01"/><polygon class="cls-20" points="174.8 57.66 173.82 57.09 173.82 56.27 174.8 56.84 174.8 57.66"/><polygon class="cls-31" points="182.23 61.95 176.34 58.55 176.34 57.73 182.23 61.13 182.23 61.95"/><polygon class="cls-31" points="178.71 61.98 173.81 59.15 173.81 58.33 178.71 61.16 178.71 61.98"/><polygon class="cls-20" points="182.43 64.13 179.34 62.34 179.34 61.52 182.43 63.31 182.43 64.13"/><polygon class="cls-20" points="195.72 71.8 191.94 69.62 191.94 68.8 195.72 70.98 195.72 71.8"/><polygon class="cls-16" points="184.49 65.32 183.22 64.59 183.22 63.77 184.49 64.5 184.49 65.32"/><polygon class="cls-32" points="190.95 69.05 186.06 66.23 186.06 65.4 190.95 68.23 190.95 69.05"/><polygon class="cls-20" points="188.68 65.67 182.78 62.27 182.78 61.45 188.68 64.85 188.68 65.67"/><polygon class="cls-20" points="180.67 59.08 176.76 56.82 176.76 56 180.67 58.26 180.67 59.08"/><polygon class="cls-20" points="184.25 61.14 182.78 60.3 182.78 59.48 184.25 60.32 184.25 61.14"/><polygon class="cls-16" points="181.97 59.83 181.24 59.41 181.24 58.59 181.97 59.01 181.97 59.83"/><polygon class="cls-16" points="176.45 56.64 175.71 56.22 175.71 55.4 176.45 55.81 176.45 56.64"/><polygon class="cls-16" points="175.91 58.3 175.19 57.88 175.19 57.06 175.91 57.48 175.91 58.3"/><polygon class="cls-20" points="182.83 56.39 178.65 53.97 178.65 53.15 182.83 55.56 182.83 56.39"/><polygon class="cls-20" points="186.69 58.61 184.04 57.08 184.04 56.26 186.69 57.79 186.69 58.61"/><polygon class="cls-20" points="191.34 61.29 187.34 58.99 187.34 58.17 191.34 60.47 191.34 61.29"/><polygon class="cls-20" points="195.03 63.43 192.66 62.06 192.66 61.24 195.03 62.61 195.03 63.43"/><polygon class="cls-20" points="184.93 53.65 180.74 51.24 180.74 50.41 184.93 52.83 184.93 53.65"/><polygon class="cls-16" points="173.26 48.88 172.9 48.67 172.9 47.85 173.26 48.06 173.26 48.88"/><polygon class="cls-16" points="173.26 60.84 172.9 60.63 172.9 59.8 173.26 60.01 173.26 60.84"/><polygon class="cls-25" points="254.92 123.33 249.93 126.22 241.46 121.33 246.46 118.44 254.92 123.33"/><polygon class="cls-26" points="259.08 136.81 249.93 142.1 249.93 126.22 254.92 123.33 259.08 136.81"/><polygon class="cls-27" points="249.93 126.22 241.46 121.33 241.46 137.21 249.93 142.1 249.93 126.22"/><polygon class="cls-28" points="252.28 136.64 250.2 137.84 237.41 130.44 239.49 129.25 252.28 136.64"/><polygon class="cls-4" points="252.28 143.47 250.2 144.67 248.78 140.65 250.2 137.84 252.28 136.64 252.28 143.47"/><polygon class="cls-7" points="250.2 137.84 237.41 130.44 237.41 137.28 250.2 144.67 250.2 137.84"/><polygon class="cls-28" points="252.28 106.06 250.2 107.27 237.41 99.87 239.49 98.67 252.28 106.06"/><polygon class="cls-29" points="252.28 136.64 250.2 137.84 250.2 107.27 252.28 106.06 252.28 136.64"/><polygon class="cls-27" points="250.2 107.27 237.41 99.87 237.41 130.44 250.2 137.84 250.2 107.27"/><polygon class="cls-26" points="238.13 101.13 238.13 130.03 249.48 136.58 249.48 107.68 238.13 101.13"/><polygon class="cls-1" points="175.96 162.4 105.64 121.8 131.97 106.6 202.29 147.2 175.96 162.4"/><polygon class="cls-29" points="175.9 162.11 173.65 157.82 202.01 145.25 202.01 147.03 175.9 162.11"/><polygon class="cls-28" points="175.9 162.11 106.19 121.86 106.19 120.08 111.48 121.36 171.45 156.03 175.9 160.32 175.9 162.11"/><polygon class="cls-31" points="175.9 160.32 106.19 120.08 132.3 105 202.01 145.25 175.9 160.32"/><polygon class="cls-28" points="188.22 140.96 185.43 139.35 186.61 138.68 189.39 140.28 188.22 140.96"/><polygon class="cls-28" points="191.32 142.75 188.53 141.15 189.71 140.47 192.49 142.08 191.32 142.75"/><polygon class="cls-28" points="194.41 144.54 191.63 142.94 192.81 142.25 195.59 143.86 194.41 144.54"/><polygon class="cls-33" points="188.06 140.4 186.42 139.44 186.76 139.25 188.41 140.19 188.06 140.4"/><polygon class="cls-33" points="191.16 142.18 189.52 141.23 189.87 141.04 191.5 141.98 191.16 142.18"/><polygon class="cls-33" points="194.25 143.97 192.61 143.02 192.95 142.82 194.6 143.77 194.25 143.97"/><polygon class="cls-4" points="135.88 109.4 135.88 108.55 130.38 106.74 130.38 107.57 134.7 110.07 135.88 109.4"/><polygon class="cls-6" points="135.88 108.55 131.56 106.06 130.38 106.74 134.7 109.23 135.88 108.55"/><polygon class="cls-4" points="137.79 111.85 138.97 111.17 138.97 110.33 135.01 109.4 135.01 110.25 137.79 111.85"/><polygon class="cls-6" points="137.79 111.01 138.97 110.33 136.18 108.73 135.01 109.4 137.79 111.01"/><polygon class="cls-4" points="140.89 113.64 142.06 112.96 142.06 112.12 138.11 111.19 138.11 112.04 140.89 113.64"/><polygon class="cls-6" points="140.89 112.8 142.06 112.12 139.28 110.51 138.11 111.19 140.89 112.8"/><polygon class="cls-4" points="143.98 115.42 145.16 114.75 145.16 113.91 141.2 112.98 141.2 113.82 143.98 115.42"/><polygon class="cls-6" points="143.98 114.58 145.16 113.91 142.37 112.3 141.2 112.98 143.98 114.58"/><polygon class="cls-4" points="147.08 117.21 148.25 116.53 148.25 115.7 144.3 114.77 144.3 115.61 147.08 117.21"/><polygon class="cls-6" points="147.08 116.37 148.25 115.7 145.48 114.09 144.3 114.77 147.08 116.37"/><polygon class="cls-4" points="150.18 119 151.35 118.33 151.35 117.49 147.4 116.56 147.4 117.4 150.18 119"/><polygon class="cls-6" points="150.18 118.16 151.35 117.49 148.57 115.88 147.4 116.56 150.18 118.16"/><polygon class="cls-4" points="153.27 120.79 154.46 120.11 154.46 119.27 150.49 118.35 150.49 119.19 153.27 120.79"/><polygon class="cls-6" points="153.27 119.95 154.46 119.27 151.67 117.67 150.49 118.35 153.27 119.95"/><polygon class="cls-4" points="156.37 122.58 157.55 121.9 157.55 121.06 153.59 120.13 153.59 120.98 156.37 122.58"/><polygon class="cls-6" points="156.37 121.74 157.55 121.06 154.76 119.46 153.59 120.13 156.37 121.74"/><polygon class="cls-4" points="159.46 124.36 160.64 123.69 160.64 122.85 156.68 121.92 156.68 122.76 159.46 124.36"/><polygon class="cls-6" points="159.46 123.53 160.64 122.85 157.86 121.24 156.68 121.92 159.46 123.53"/><polygon class="cls-4" points="162.56 126.15 163.74 125.47 163.74 124.64 159.78 123.71 159.78 124.55 162.56 126.15"/><polygon class="cls-6" points="162.56 125.31 163.74 124.64 160.96 123.03 159.78 123.71 162.56 125.31"/><polygon class="cls-4" points="165.66 127.94 166.84 127.27 166.84 126.43 162.88 125.5 162.88 126.34 165.66 127.94"/><polygon class="cls-6" points="165.66 127.11 166.84 126.43 164.06 124.82 162.88 125.5 165.66 127.11"/><polygon class="cls-4" points="168.75 129.73 169.93 129.05 169.93 128.21 165.98 127.29 165.98 128.12 168.75 129.73"/><polygon class="cls-6" points="168.75 128.89 169.93 128.21 167.16 126.61 165.98 127.29 168.75 128.89"/><polygon class="cls-4" points="171.85 131.52 173.03 130.84 173.03 130 169.07 129.07 169.07 129.91 171.85 131.52"/><polygon class="cls-6" points="171.85 130.69 173.03 130 170.25 128.4 169.07 129.07 171.85 130.69"/><polygon class="cls-4" points="174.95 133.31 176.13 132.63 176.13 131.79 172.17 130.86 172.17 131.71 174.95 133.31"/><polygon class="cls-6" points="174.95 132.47 176.13 131.79 173.34 130.18 172.17 130.86 174.95 132.47"/><polygon class="cls-4" points="132.57 111.31 132.57 110.46 125.47 109.57 125.47 110.42 129.79 112.91 132.57 111.31"/><polygon class="cls-6" points="132.57 110.46 128.24 107.97 125.47 109.57 129.79 112.07 132.57 110.46"/><polygon class="cls-4" points="134.2 112.24 132.87 111.48 131.54 112.24 130.09 112.24 130.09 113.09 132.87 114.7 135.66 113.09 135.66 112.24 134.2 112.24"/><polygon class="cls-6" points="132.87 110.64 130.09 112.24 132.87 113.85 135.66 112.24 132.87 110.64"/><polygon class="cls-4" points="137.29 114.03 135.97 113.27 134.64 114.03 133.19 114.03 133.19 114.87 135.97 116.47 138.75 114.87 138.75 114.03 137.29 114.03"/><polygon class="cls-6" points="135.97 112.43 133.19 114.03 135.97 115.63 138.75 114.03 135.97 112.43"/><polygon class="cls-4" points="140.4 115.82 139.06 115.06 137.74 115.82 136.28 115.82 136.28 116.66 139.06 118.27 141.85 116.66 141.85 115.82 140.4 115.82"/><polygon class="cls-6" points="139.06 114.22 136.28 115.82 139.06 117.42 141.85 115.82 139.06 114.22"/><polygon class="cls-4" points="143.49 117.61 142.17 116.84 140.84 117.61 139.38 117.61 139.38 118.45 142.17 120.06 144.94 118.45 144.94 117.61 143.49 117.61"/><polygon class="cls-6" points="142.17 116.01 139.38 117.61 142.17 119.21 144.94 117.61 142.17 116.01"/><polygon class="cls-4" points="146.58 119.39 145.25 118.63 143.93 119.39 142.48 119.39 142.48 120.24 145.25 121.84 148.03 120.24 148.03 119.39 146.58 119.39"/><polygon class="cls-6" points="145.25 117.79 142.48 119.39 145.25 121 148.03 119.39 145.25 117.79"/><polygon class="cls-4" points="149.69 121.18 148.35 120.42 147.03 121.18 145.57 121.18 145.57 122.02 148.35 123.63 151.13 122.02 151.13 121.18 149.69 121.18"/><polygon class="cls-6" points="148.35 119.58 145.57 121.18 148.35 122.79 151.13 121.18 148.35 119.58"/><polygon class="cls-4" points="152.78 122.97 151.45 122.21 150.13 122.97 148.67 122.97 148.67 123.81 151.45 125.41 154.23 123.81 154.23 122.97 152.78 122.97"/><polygon class="cls-6" points="151.45 121.36 148.67 122.97 151.45 124.58 154.23 122.97 151.45 121.36"/><polygon class="cls-4" points="155.87 124.76 154.55 124 153.22 124.76 151.77 124.76 151.77 125.6 154.55 127.2 157.33 125.6 157.33 124.76 155.87 124.76"/><polygon class="cls-6" points="154.55 123.16 151.77 124.76 154.55 126.36 157.33 124.76 154.55 123.16"/><polygon class="cls-4" points="158.97 126.54 157.65 125.78 156.32 126.54 154.87 126.54 154.87 127.39 157.65 128.99 160.42 127.39 160.42 126.54 158.97 126.54"/><polygon class="cls-6" points="157.65 124.94 154.87 126.54 157.65 128.15 160.42 126.54 157.65 124.94"/><polygon class="cls-4" points="162.07 128.33 160.74 127.57 159.42 128.33 157.96 128.33 157.96 129.17 160.74 130.78 163.52 129.17 163.52 128.33 162.07 128.33"/><polygon class="cls-6" points="160.74 126.73 157.96 128.33 160.74 129.94 163.52 128.33 160.74 126.73"/><polygon class="cls-4" points="165.16 130.12 163.84 129.35 162.51 130.12 161.06 130.12 161.06 130.96 163.84 132.56 166.63 130.96 166.63 130.12 165.16 130.12"/><polygon class="cls-6" points="163.84 128.52 161.06 130.12 163.84 131.72 166.63 130.12 163.84 128.52"/><polygon class="cls-4" points="168.26 131.91 166.94 131.15 165.62 131.91 164.16 131.91 164.16 132.75 166.94 134.36 169.73 132.75 169.73 131.91 168.26 131.91"/><polygon class="cls-6" points="166.94 130.31 164.16 131.91 166.94 133.52 169.73 131.91 166.94 130.31"/><polygon class="cls-4" points="171.36 133.7 170.04 132.93 168.71 133.7 167.25 133.7 167.25 134.54 170.04 136.14 172.82 134.54 172.82 133.7 171.36 133.7"/><polygon class="cls-6" points="170.04 132.1 167.25 133.7 170.04 135.31 172.82 133.7 170.04 132.1"/><polygon class="cls-4" points="126.61 111.29 125.27 110.52 123.95 111.29 122.5 111.29 122.5 112.12 125.27 113.73 128.06 112.12 128.06 111.29 126.61 111.29"/><polygon class="cls-6" points="125.27 109.68 122.5 111.29 125.27 112.89 128.06 111.29 125.27 109.68"/><polygon class="cls-4" points="129.7 113.07 128.37 112.3 127.05 113.07 125.59 113.07 125.59 113.91 128.37 115.52 131.15 113.91 131.15 113.07 129.7 113.07"/><polygon class="cls-6" points="128.37 111.47 125.59 113.07 128.37 114.68 131.15 113.07 128.37 111.47"/><polygon class="cls-4" points="132.79 114.86 131.47 114.09 130.14 114.86 128.69 114.86 128.69 115.7 131.47 117.3 134.25 115.7 134.25 114.86 132.79 114.86"/><polygon class="cls-6" points="131.47 113.25 128.69 114.86 131.47 116.46 134.25 114.86 131.47 113.25"/><polygon class="cls-4" points="135.9 116.64 134.57 115.88 133.25 116.64 131.79 116.64 131.79 117.49 134.57 119.09 137.34 117.49 137.34 116.64 135.9 116.64"/><polygon class="cls-6" points="134.57 115.04 131.79 116.64 134.57 118.25 137.34 116.64 134.57 115.04"/><polygon class="cls-4" points="138.99 118.44 137.66 117.67 136.34 118.44 134.88 118.44 134.88 119.27 137.66 120.88 140.44 119.27 140.44 118.44 138.99 118.44"/><polygon class="cls-6" points="137.66 116.83 134.88 118.44 137.66 120.04 140.44 118.44 137.66 116.83"/><polygon class="cls-4" points="142.09 120.23 140.76 119.46 139.44 120.23 137.98 120.23 137.98 121.06 140.76 122.67 143.54 121.06 143.54 120.23 142.09 120.23"/><polygon class="cls-6" points="140.76 118.61 137.98 120.23 140.76 121.83 143.54 120.23 140.76 118.61"/><polygon class="cls-4" points="145.19 122.01 143.86 121.24 142.53 122.01 141.08 122.01 141.08 122.85 143.86 124.46 146.64 122.85 146.64 122.01 145.19 122.01"/><polygon class="cls-6" points="143.86 120.41 141.08 122.01 143.86 123.62 146.64 122.01 143.86 120.41"/><polygon class="cls-4" points="148.28 123.8 146.96 123.03 145.63 123.8 144.17 123.8 144.17 124.64 146.96 126.24 149.74 124.64 149.74 123.8 148.28 123.8"/><polygon class="cls-6" points="146.96 122.19 144.17 123.8 146.96 125.4 149.74 123.8 146.96 122.19"/><polygon class="cls-4" points="151.38 125.59 150.05 124.82 148.72 125.59 147.27 125.59 147.27 126.43 150.05 128.03 152.84 126.43 152.84 125.59 151.38 125.59"/><polygon class="cls-6" points="150.05 123.98 147.27 125.59 150.05 127.19 152.84 125.59 150.05 123.98"/><polygon class="cls-4" points="154.47 127.38 153.15 126.61 151.83 127.38 150.38 127.38 150.38 128.21 153.15 129.82 155.93 128.21 155.93 127.38 154.47 127.38"/><polygon class="cls-6" points="153.15 125.77 150.38 127.38 153.15 128.98 155.93 127.38 153.15 125.77"/><polygon class="cls-4" points="157.57 129.16 156.24 128.4 154.92 129.16 153.47 129.16 153.47 130 156.24 131.61 159.03 130 159.03 129.16 157.57 129.16"/><polygon class="cls-6" points="156.24 127.56 153.47 129.16 156.24 130.77 159.03 129.16 156.24 127.56"/><polygon class="cls-4" points="160.67 130.95 159.34 130.18 158.01 130.95 156.56 130.95 156.56 131.79 159.34 133.4 162.13 131.79 162.13 130.95 160.67 130.95"/><polygon class="cls-6" points="159.34 129.35 156.56 130.95 159.34 132.56 162.13 130.95 159.34 129.35"/><polygon class="cls-4" points="163.77 132.74 162.44 131.98 161.11 132.74 159.66 132.74 159.66 133.58 162.44 135.18 165.22 133.58 165.22 132.74 163.77 132.74"/><polygon class="cls-6" points="162.44 131.13 159.66 132.74 162.44 134.34 165.22 132.74 162.44 131.13"/><polygon class="cls-4" points="169.85 136.25 169.85 135.41 162.76 134.53 162.76 135.37 167.08 137.86 169.85 136.25"/><polygon class="cls-6" points="169.85 135.41 165.54 132.92 162.76 134.53 167.08 137.02 169.85 135.41"/><polygon class="cls-4" points="126.5 114.75 126.5 113.91 119.51 113.09 119.51 113.92 123.71 116.35 126.5 114.75"/><polygon class="cls-6" points="126.5 113.91 122.29 111.48 119.51 113.09 123.71 115.51 126.5 113.91"/><polygon class="cls-4" points="128.14 115.7 126.81 114.93 125.48 115.7 124.03 115.7 124.03 116.53 126.81 118.14 129.6 116.53 129.6 115.7 128.14 115.7"/><polygon class="cls-6" points="126.81 114.09 124.03 115.7 126.81 117.3 129.6 115.7 126.81 114.09"/><polygon class="cls-4" points="131.24 117.49 129.91 116.72 128.58 117.49 127.13 117.49 127.13 118.32 129.91 119.93 132.69 118.32 132.69 117.49 131.24 117.49"/><polygon class="cls-6" points="129.91 115.87 127.13 117.49 129.91 119.09 132.69 117.49 129.91 115.87"/><polygon class="cls-4" points="134.33 119.27 133.01 118.51 131.68 119.27 130.22 119.27 130.22 120.11 133.01 121.71 135.78 120.11 135.78 119.27 134.33 119.27"/><polygon class="cls-6" points="133.01 117.66 130.22 119.27 133.01 120.87 135.78 119.27 133.01 117.66"/><polygon class="cls-4" points="137.43 121.06 136.1 120.29 134.78 121.06 133.32 121.06 133.32 121.89 136.1 123.5 138.88 121.89 138.88 121.06 137.43 121.06"/><polygon class="cls-6" points="136.1 119.46 133.32 121.06 136.1 122.67 138.88 121.06 136.1 119.46"/><polygon class="cls-4" points="140.53 122.85 139.2 122.08 137.87 122.85 136.42 122.85 136.42 123.69 139.2 125.29 141.98 123.69 141.98 122.85 140.53 122.85"/><polygon class="cls-6" points="139.2 121.24 136.42 122.85 139.2 124.46 141.98 122.85 139.2 121.24"/><polygon class="cls-4" points="143.62 124.64 142.3 123.87 140.97 124.64 139.52 124.64 139.52 125.47 142.3 127.08 145.07 125.47 145.07 124.64 143.62 124.64"/><polygon class="cls-6" points="142.3 123.03 139.52 124.64 142.3 126.24 145.07 124.64 142.3 123.03"/><polygon class="cls-4" points="146.72 126.42 145.4 125.66 144.06 126.42 142.61 126.42 142.61 127.26 145.4 128.87 148.17 127.26 148.17 126.42 146.72 126.42"/><polygon class="cls-6" points="145.4 124.81 142.61 126.42 145.4 128.03 148.17 126.42 145.4 124.81"/><polygon class="cls-4" points="149.81 128.21 148.49 127.44 147.16 128.21 145.7 128.21 145.7 129.05 148.49 130.66 151.27 129.05 151.27 128.21 149.81 128.21"/><polygon class="cls-6" points="148.49 126.61 145.7 128.21 148.49 129.81 151.27 128.21 148.49 126.61"/><polygon class="cls-4" points="152.91 130 151.59 129.24 150.26 130 148.81 130 148.81 130.84 151.59 132.44 154.36 130.84 154.36 130 152.91 130"/><polygon class="cls-6" points="151.59 128.39 148.81 130 151.59 131.61 154.36 130 151.59 128.39"/><polygon class="cls-4" points="156.01 131.79 154.68 131.02 153.36 131.79 151.91 131.79 151.91 132.63 154.68 134.23 157.46 132.63 157.46 131.79 156.01 131.79"/><polygon class="cls-6" points="154.68 130.18 151.91 131.79 154.68 133.4 157.46 131.79 154.68 130.18"/><polygon class="cls-4" points="159.11 133.57 157.78 132.81 156.45 133.57 155 133.57 155 134.41 157.78 136.02 160.56 134.41 160.56 133.57 159.11 133.57"/><polygon class="cls-6" points="157.78 131.97 155 133.57 157.78 135.18 160.56 133.57 157.78 131.97"/><polygon class="cls-4" points="162.2 135.37 160.88 134.59 159.55 135.37 158.09 135.37 158.09 136.21 160.88 137.81 163.66 136.21 163.66 135.37 162.2 135.37"/><polygon class="cls-6" points="160.88 133.76 158.09 135.37 160.88 136.96 163.66 135.37 160.88 133.76"/><polygon class="cls-4" points="124.33 116.96 124.33 116.13 116.51 114.82 116.51 115.66 121.55 118.57 124.33 116.96"/><polygon class="cls-6" points="124.33 116.13 119.28 113.22 116.51 114.82 121.55 117.73 124.33 116.13"/><polygon class="cls-4" points="125.97 117.92 124.65 117.15 123.32 117.92 121.86 117.92 121.86 118.75 124.65 120.36 127.43 118.75 127.43 117.92 125.97 117.92"/><polygon class="cls-6" points="124.65 116.31 121.86 117.92 124.65 119.52 127.43 117.92 124.65 116.31"/><polygon class="cls-4" points="129.07 119.7 127.74 118.93 126.42 119.7 124.96 119.7 124.96 120.54 127.74 122.14 130.53 120.54 130.53 119.7 129.07 119.7"/><polygon class="cls-6" points="127.74 118.09 124.96 119.7 127.74 121.31 130.53 119.7 127.74 118.09"/><polygon class="cls-4" points="132.17 121.48 130.84 120.72 129.51 121.48 128.06 121.48 128.06 122.32 130.84 123.93 133.61 122.32 133.61 121.48 132.17 121.48"/><polygon class="cls-6" points="130.84 119.88 128.06 121.48 130.84 123.09 133.61 121.48 130.84 119.88"/><polygon class="cls-4" points="135.26 123.28 133.94 122.51 132.61 123.28 131.16 123.28 131.16 124.12 133.94 125.72 136.72 124.12 136.72 123.28 135.26 123.28"/><polygon class="cls-6" points="133.94 121.67 131.16 123.28 133.94 124.89 136.72 123.28 133.94 121.67"/><polygon class="cls-4" points="138.36 125.07 137.03 124.3 135.71 125.07 134.25 125.07 134.25 125.9 137.03 127.51 139.82 125.9 139.82 125.07 138.36 125.07"/><polygon class="cls-6" points="137.03 123.46 134.25 125.07 137.03 126.67 139.82 125.07 137.03 123.46"/><polygon class="cls-4" points="141.46 126.86 140.13 126.09 138.8 126.86 137.36 126.86 137.36 127.69 140.13 129.29 142.91 127.69 142.91 126.86 141.46 126.86"/><polygon class="cls-6" points="140.13 125.24 137.36 126.86 140.13 128.46 142.91 126.86 140.13 125.24"/><polygon class="cls-4" points="144.55 128.64 143.23 127.88 141.9 128.64 140.44 128.64 140.44 129.48 143.23 131.09 146 129.48 146 128.64 144.55 128.64"/><polygon class="cls-6" points="143.23 127.03 140.44 128.64 143.23 130.25 146 128.64 143.23 127.03"/><polygon class="cls-4" points="147.66 130.43 146.32 129.66 145 130.43 143.54 130.43 143.54 131.27 146.32 132.87 149.1 131.27 149.1 130.43 147.66 130.43"/><polygon class="cls-6" points="146.32 128.82 143.54 130.43 146.32 132.03 149.1 130.43 146.32 128.82"/><polygon class="cls-4" points="150.75 132.22 149.42 131.45 148.1 132.22 146.64 132.22 146.64 133.06 149.42 134.66 152.2 133.06 152.2 132.22 150.75 132.22"/><polygon class="cls-6" points="149.42 130.61 146.64 132.22 149.42 133.82 152.2 132.22 149.42 130.61"/><polygon class="cls-4" points="153.85 134 152.52 133.24 151.19 134 149.74 134 149.74 134.85 152.52 136.45 155.31 134.85 155.31 134 153.85 134"/><polygon class="cls-6" points="152.52 132.4 149.74 134 152.52 135.62 155.31 134 152.52 132.4"/><polygon class="cls-4" points="156.94 135.79 155.62 135.03 154.29 135.79 152.84 135.79 152.84 136.63 155.62 138.24 158.4 136.63 158.4 135.79 156.94 135.79"/><polygon class="cls-6" points="155.62 134.19 152.84 135.79 155.62 137.4 158.4 135.79 155.62 134.19"/><polygon class="cls-4" points="166.76 137.99 166.76 137.15 160.97 138.12 155.93 137.58 155.93 138.42 160.97 141.33 166.76 137.99"/><polygon class="cls-6" points="166.76 137.15 163.97 135.55 160.97 137.28 158.71 135.97 155.93 137.58 160.97 140.5 166.76 137.15"/><polygon class="cls-4" points="119.79 117.79 119.79 116.95 113.53 116.54 113.53 117.38 117.01 119.39 119.79 117.79"/><polygon class="cls-6" points="119.79 116.95 116.31 114.94 113.53 116.54 117.01 118.56 119.79 116.95"/><polygon class="cls-4" points="121.45 118.74 120.11 117.98 118.79 118.74 117.34 118.74 117.34 119.58 120.11 121.18 122.89 119.58 122.89 118.74 121.45 118.74"/><polygon class="cls-6" points="120.11 117.14 117.34 118.74 120.11 120.35 122.89 118.74 120.11 117.14"/><polygon class="cls-4" points="124.54 120.53 123.21 119.76 121.88 120.53 120.43 120.53 120.43 121.37 123.21 122.97 125.99 121.37 125.99 120.53 124.54 120.53"/><polygon class="cls-6" points="123.21 118.93 120.43 120.53 123.21 122.13 125.99 120.53 123.21 118.93"/><polygon class="cls-4" points="127.64 122.31 126.32 121.55 124.99 122.31 123.53 122.31 123.53 123.16 126.32 124.76 129.09 123.16 129.09 122.31 127.64 122.31"/><polygon class="cls-6" points="126.32 120.71 123.53 122.31 126.32 123.92 129.09 122.31 126.32 120.71"/><polygon class="cls-4" points="130.74 124.1 129.4 123.34 128.08 124.1 126.63 124.1 126.63 124.94 129.4 126.54 132.18 124.94 132.18 124.1 130.74 124.1"/><polygon class="cls-6" points="129.4 122.5 126.63 124.1 129.4 125.7 132.18 124.1 129.4 122.5"/><polygon class="cls-4" points="133.84 125.89 132.5 125.13 131.18 125.89 129.73 125.89 129.73 126.73 132.5 128.34 135.29 126.73 135.29 125.89 133.84 125.89"/><polygon class="cls-6" points="132.5 124.29 129.73 125.89 132.5 127.5 135.29 125.89 132.5 124.29"/><polygon class="cls-4" points="136.93 127.68 135.6 126.91 134.27 127.68 132.82 127.68 132.82 128.52 135.6 130.12 138.38 128.52 138.38 127.68 136.93 127.68"/><polygon class="cls-6" points="135.6 126.08 132.82 127.68 135.6 129.28 138.38 127.68 135.6 126.08"/><polygon class="cls-4" points="140.03 129.47 138.7 128.7 137.38 129.47 135.92 129.47 135.92 130.31 138.7 131.91 141.48 130.31 141.48 129.47 140.03 129.47"/><polygon class="cls-6" points="138.7 127.86 135.92 129.47 138.7 131.07 141.48 129.47 138.7 127.86"/><polygon class="cls-4" points="143.12 131.26 141.8 130.49 140.47 131.26 139.02 131.26 139.02 132.1 141.8 133.7 144.58 132.1 144.58 131.26 143.12 131.26"/><polygon class="cls-6" points="141.8 129.65 139.02 131.26 141.8 132.86 144.58 131.26 141.8 129.65"/><polygon class="cls-4" points="146.23 133.05 144.9 132.29 143.57 133.05 142.12 133.05 142.12 133.89 144.9 135.5 147.69 133.89 147.69 133.05 146.23 133.05"/><polygon class="cls-6" points="144.9 131.44 142.12 133.05 144.9 134.66 147.69 133.05 144.9 131.44"/><polygon class="cls-4" points="149.33 134.84 148 134.07 146.67 134.84 145.22 134.84 145.22 135.68 148 137.28 150.78 135.68 150.78 134.84 149.33 134.84"/><polygon class="cls-6" points="148 133.23 145.22 134.84 148 136.44 150.78 134.84 148 133.23"/><polygon class="cls-4" points="152.43 136.63 151.09 135.86 149.77 136.63 148.31 136.63 148.31 137.46 151.09 139.07 153.88 137.46 153.88 136.63 152.43 136.63"/><polygon class="cls-6" points="151.09 135.02 148.31 136.63 151.09 138.23 153.88 136.63 151.09 135.02"/><polygon class="cls-4" points="160.77 141.44 160.77 140.6 151.4 138.41 151.4 139.25 157.98 143.05 160.77 141.44"/><polygon class="cls-6" points="160.77 140.6 154.18 136.8 151.4 138.41 157.98 142.21 160.77 140.6"/><polygon class="cls-4" points="110.54 118.27 110.54 119.11 114.86 121.6 117.64 119.99 117.64 119.15 110.54 118.27"/><polygon class="cls-6" points="113.31 116.66 110.54 118.27 114.86 120.76 117.64 119.15 113.31 116.66"/><polygon class="cls-4" points="115.18 120.94 115.18 121.78 118.68 123.81 121.46 122.2 121.46 121.36 115.18 120.94"/><polygon class="cls-6" points="117.96 119.33 115.18 120.94 118.68 122.97 121.46 121.36 117.96 119.33"/><polygon class="cls-4" points="119 123.15 119 123.98 123.33 126.49 126.12 124.89 126.12 124.05 119 123.15"/><polygon class="cls-6" points="121.77 121.54 119 123.15 123.33 125.66 126.12 124.05 121.77 121.54"/><polygon class="cls-4" points="123.65 125.83 123.65 126.67 141.92 137.22 144.7 135.62 144.7 134.77 123.65 125.83"/><polygon class="cls-6" points="126.44 124.22 123.65 125.83 141.92 136.38 144.7 134.77 126.44 124.22"/><polygon class="cls-4" points="142.23 136.56 142.23 137.4 146.28 139.74 149.06 138.14 149.06 137.29 142.23 136.56"/><polygon class="cls-6" points="145.01 134.96 142.23 136.56 146.28 138.9 149.06 137.29 145.01 134.96"/><polygon class="cls-4" points="146.62 139.09 146.62 139.93 150.17 141.98 152.95 140.38 152.95 139.54 146.62 139.09"/><polygon class="cls-6" points="149.39 137.49 146.62 139.09 150.17 141.15 152.95 139.54 149.39 137.49"/><polygon class="cls-4" points="150.46 141.32 150.46 142.15 155 144.78 157.79 143.17 157.79 142.33 150.46 141.32"/><polygon class="cls-6" points="153.24 139.71 150.46 141.32 155 143.94 157.79 142.33 153.24 139.71"/><polygon class="cls-4" points="174.8 135.69 173.47 134.92 172.15 135.69 170.69 135.69 170.69 136.53 173.47 138.13 176.26 136.53 176.26 135.69 174.8 135.69"/><polygon class="cls-6" points="173.47 134.08 170.69 135.69 173.47 137.29 176.26 135.69 173.47 134.08"/><polygon class="cls-4" points="171.83 137.4 170.51 136.63 169.18 137.4 167.73 137.4 167.73 138.24 170.51 139.85 173.29 138.24 173.29 137.4 171.83 137.4"/><polygon class="cls-6" points="170.51 135.79 167.73 137.4 170.51 139.01 173.29 137.4 170.51 135.79"/><polygon class="cls-4" points="168.79 139.17 167.46 138.4 166.13 139.17 164.68 139.17 164.68 140 167.46 141.6 170.23 140 170.23 139.17 168.79 139.17"/><polygon class="cls-6" points="167.46 137.56 164.68 139.17 167.46 140.77 170.23 139.17 167.46 137.56"/><polygon class="cls-4" points="177.9 137.47 176.57 136.71 175.25 137.47 173.79 137.47 173.79 138.31 176.57 139.92 179.35 138.31 179.35 137.47 177.9 137.47"/><polygon class="cls-6" points="176.57 135.87 173.79 137.47 176.57 139.07 179.35 137.47 176.57 135.87"/><polygon class="cls-4" points="174.94 139.18 173.6 138.42 172.28 139.18 170.83 139.18 170.83 140.03 173.6 141.63 176.39 140.03 176.39 139.18 174.94 139.18"/><polygon class="cls-6" points="173.6 137.58 170.83 139.18 173.6 140.79 176.39 139.18 173.6 137.58"/><polygon class="cls-4" points="171.88 140.95 170.56 140.19 169.23 140.95 167.78 140.95 167.78 141.79 170.56 143.4 173.34 141.79 173.34 140.95 171.88 140.95"/><polygon class="cls-6" points="170.56 139.35 167.78 140.95 170.56 142.56 173.34 140.95 170.56 139.35"/><polygon class="cls-4" points="181 139.26 179.67 138.5 178.34 139.26 176.89 139.26 176.89 140.1 179.67 141.7 182.45 140.1 182.45 139.26 181 139.26"/><polygon class="cls-6" points="179.67 137.66 176.89 139.26 179.67 140.87 182.45 139.26 179.67 137.66"/><polygon class="cls-4" points="178.03 140.97 176.71 140.21 175.37 140.97 173.92 140.97 173.92 141.81 176.71 143.42 179.49 141.81 179.49 140.97 178.03 140.97"/><polygon class="cls-6" points="176.71 139.37 173.92 140.97 176.71 142.57 179.49 140.97 176.71 139.37"/><polygon class="cls-4" points="174.98 142.74 173.65 141.97 172.32 142.74 170.88 142.74 170.88 143.57 173.65 145.19 176.43 143.57 176.43 142.74 174.98 142.74"/><polygon class="cls-6" points="173.65 141.13 170.88 142.74 173.65 144.34 176.43 142.74 173.65 141.13"/><polygon class="cls-4" points="159.82 144.34 158.48 143.57 157.16 144.34 155.71 144.34 155.71 145.19 158.48 146.79 161.27 145.19 161.27 144.34 159.82 144.34"/><polygon class="cls-6" points="158.48 142.74 155.71 144.34 158.48 145.95 161.27 144.34 158.48 142.74"/><polygon class="cls-4" points="165.89 144.41 164.57 143.64 163.25 144.41 161.79 144.41 161.79 145.24 164.57 146.85 167.35 145.24 167.35 144.41 165.89 144.41"/><polygon class="cls-6" points="164.57 142.81 161.79 144.41 164.57 146.01 167.35 144.41 164.57 142.81"/><polygon class="cls-4" points="162.91 146.13 161.58 145.36 160.26 146.13 158.81 146.13 158.81 146.97 161.58 148.57 164.36 146.97 164.36 146.13 162.91 146.13"/><polygon class="cls-6" points="161.58 144.52 158.81 146.13 161.58 147.73 164.36 146.13 161.58 144.52"/><polygon class="cls-4" points="166 147.92 164.68 147.15 163.35 147.92 161.9 147.92 161.9 148.76 164.68 150.36 167.46 148.76 167.46 147.92 166 147.92"/><polygon class="cls-6" points="164.68 146.31 161.9 147.92 164.68 149.52 167.46 147.92 164.68 146.31"/><polygon class="cls-4" points="184.63 141.36 183.3 140.59 181.97 141.36 180.52 141.36 180.52 142.2 183.3 143.8 186.08 142.2 186.08 141.36 184.63 141.36"/><polygon class="cls-6" points="183.3 139.75 180.52 141.36 183.3 142.96 186.08 141.36 183.3 139.75"/><polygon class="cls-4" points="181.66 143.07 180.34 142.3 179.01 143.07 177.56 143.07 177.56 143.91 180.34 145.52 183.11 143.91 183.11 143.07 181.66 143.07"/><polygon class="cls-6" points="180.34 141.47 177.56 143.07 180.34 144.68 183.11 143.07 180.34 141.47"/><polygon class="cls-4" points="178.61 144.83 177.28 144.07 175.95 144.83 174.51 144.83 174.51 145.67 177.28 147.28 180.06 145.67 180.06 144.83 178.61 144.83"/><polygon class="cls-6" points="177.28 143.23 174.51 144.83 177.28 146.44 180.06 144.83 177.28 143.23"/><polygon class="cls-4" points="175.56 146.6 174.23 145.83 172.9 146.6 171.45 146.6 171.45 147.44 174.23 149.04 177.01 147.44 177.01 146.6 175.56 146.6"/><polygon class="cls-6" points="174.23 144.99 171.45 146.6 174.23 148.21 177.01 146.6 174.23 144.99"/><polygon class="cls-4" points="172.56 148.32 171.24 147.56 169.9 148.32 168.46 148.32 168.46 149.17 171.24 150.77 174.02 149.17 174.02 148.32 172.56 148.32"/><polygon class="cls-6" points="171.24 146.72 168.46 148.32 171.24 149.93 174.02 148.32 171.24 146.72"/><polygon class="cls-4" points="187.72 143.14 186.39 142.38 185.07 143.14 183.61 143.14 183.61 143.99 186.39 145.59 189.17 143.99 189.17 143.14 187.72 143.14"/><polygon class="cls-6" points="186.39 141.54 183.61 143.14 186.39 144.75 189.17 143.14 186.39 141.54"/><polygon class="cls-4" points="184.75 144.86 183.44 144.09 182.1 144.86 180.65 144.86 180.65 145.69 183.44 147.3 186.21 145.69 186.21 144.86 184.75 144.86"/><polygon class="cls-6" points="183.44 143.25 180.65 144.86 183.44 146.47 186.21 144.86 183.44 143.25"/><polygon class="cls-4" points="181.71 146.63 180.38 145.86 179.05 146.63 177.59 146.63 177.59 147.46 180.38 149.06 183.16 147.46 183.16 146.63 181.71 146.63"/><polygon class="cls-6" points="180.38 145.01 177.59 146.63 180.38 148.23 183.16 146.63 180.38 145.01"/><polygon class="cls-4" points="178.66 148.39 177.32 147.62 175.99 148.39 174.55 148.39 174.55 149.22 177.32 150.83 180.1 149.22 180.1 148.39 178.66 148.39"/><polygon class="cls-6" points="177.32 146.78 174.55 148.39 177.32 149.99 180.1 148.39 177.32 146.78"/><polygon class="cls-4" points="175.66 150.11 174.34 149.35 173 150.11 171.55 150.11 171.55 150.95 174.34 152.55 177.11 150.95 177.11 150.11 175.66 150.11"/><polygon class="cls-6" points="174.34 148.51 171.55 150.11 174.34 151.72 177.11 150.11 174.34 148.51"/><polygon class="cls-4" points="171.92 151.34 168.31 149.25 166.6 150.23 165.52 150.01 165.52 150.85 171.41 154.25 174.19 152.64 174.19 151.8 171.92 151.34"/><polygon class="cls-6" points="168.31 148.4 165.52 150.01 171.41 153.4 174.19 151.8 168.31 148.4"/><polygon class="cls-4" points="190.82 144.93 189.5 144.16 188.16 144.93 186.72 144.93 186.72 145.77 189.5 147.38 192.27 145.77 192.27 144.93 190.82 144.93"/><polygon class="cls-6" points="189.5 143.32 186.72 144.93 189.5 146.54 192.27 144.93 189.5 143.32"/><polygon class="cls-4" points="187.85 146.65 186.53 145.88 185.2 146.65 183.75 146.65 183.75 147.48 186.53 149.09 189.31 147.48 189.31 146.65 187.85 146.65"/><polygon class="cls-6" points="186.53 145.04 183.75 146.65 186.53 148.26 189.31 146.65 186.53 145.04"/><polygon class="cls-4" points="184.81 148.41 183.48 147.64 182.15 148.41 180.69 148.41 180.69 149.25 183.48 150.85 186.26 149.25 186.26 148.41 184.81 148.41"/><polygon class="cls-6" points="183.48 146.8 180.69 148.41 183.48 150.01 186.26 148.41 183.48 146.8"/><polygon class="cls-4" points="181.74 150.17 180.42 149.41 179.09 150.17 177.64 150.17 177.64 151.01 180.42 152.62 183.2 151.01 183.2 150.17 181.74 150.17"/><polygon class="cls-6" points="180.42 148.57 177.64 150.17 180.42 151.78 183.2 150.17 180.42 148.57"/><polygon class="cls-4" points="178.76 151.9 177.43 151.13 176.1 151.9 174.64 151.9 174.64 152.74 177.43 154.34 180.21 152.74 180.21 151.9 178.76 151.9"/><polygon class="cls-6" points="177.43 150.3 174.64 151.9 177.43 153.5 180.21 151.9 177.43 150.3"/><polygon class="cls-4" points="175.83 153.59 174.51 152.82 173.18 153.59 171.72 153.59 171.72 154.43 174.51 156.03 177.28 154.43 177.28 153.59 175.83 153.59"/><polygon class="cls-6" points="174.51 151.99 171.72 153.59 174.51 155.2 177.28 153.59 174.51 151.99"/><polygon class="cls-4" points="182.22 153.91 180.53 152.93 177.04 154.93 174.82 155.38 174.82 156.21 177.61 157.82 183.3 154.53 183.3 153.69 182.22 153.91"/><polygon class="cls-4" points="193.91 146.72 192.59 145.95 191.26 146.72 189.81 146.72 189.81 147.56 192.59 149.17 195.37 147.56 195.37 146.72 193.91 146.72"/><polygon class="cls-6" points="192.59 145.12 189.81 146.72 192.59 148.33 195.37 146.72 192.59 145.12"/><polygon class="cls-4" points="190.96 148.43 189.62 147.66 188.3 148.43 186.84 148.43 186.84 149.27 189.62 150.87 192.41 149.27 192.41 148.43 190.96 148.43"/><polygon class="cls-6" points="189.62 146.82 186.84 148.43 189.62 150.04 192.41 148.43 189.62 146.82"/><polygon class="cls-4" points="187.89 150.19 186.57 149.44 185.24 150.19 183.79 150.19 183.79 151.04 186.57 152.64 189.35 151.04 189.35 150.19 187.89 150.19"/><polygon class="cls-6" points="186.57 148.59 183.79 150.19 186.57 151.8 189.35 150.19 186.57 148.59"/><polygon class="cls-4" points="184.85 151.96 183.52 151.19 182.19 151.96 180.74 151.96 180.74 152.8 183.52 154.4 186.29 152.8 186.29 151.96 184.85 151.96"/><polygon class="cls-6" points="183.52 150.35 180.74 151.96 183.52 153.56 186.29 151.96 183.52 150.35"/><polygon class="cls-6" points="174.82 155.38 177.61 156.98 183.3 153.69 180.53 152.08 174.82 155.38"/><polygon class="cls-1" points="116.49 79.33 116.49 75.04 111.23 72.01 103.81 72.01 98.55 75.04 98.55 79.33 103.81 82.36 111.23 82.36 116.49 79.33"/><polygon class="cls-31" points="116.22 62.25 116.22 58.08 111.12 55.13 103.91 55.13 98.81 58.08 98.81 62.25 103.91 65.19 111.12 65.19 116.22 62.25"/><polygon class="cls-28" points="110.58 55.88 114.94 58.39 114.94 61.95 114.3 62.31 110.58 60.17 109.08 57.75 110.58 55.88"/><polygon class="cls-25" points="110.58 60.17 104.42 60.17 103.56 58.28 104.42 55.88 110.58 55.88 110.58 60.17"/><polygon class="cls-26" points="104.42 60.17 100.71 62.31 100.07 61.95 100.07 58.39 104.42 55.88 104.42 60.17"/><polygon class="cls-34" points="114.3 62.31 111.88 63.71 109.7 64.32 105.09 64.22 103.13 63.71 100.71 62.31 104.42 60.17 110.58 60.17 114.3 62.31"/><path class="cls-35" d="M185.75,118.58h-3.63l-2.56,1.48v.37l1.29.76H187l1.3-.76v-.37Zm-1.94.77.1-.07h.16l.11.07v.09l-.11.06h-.16l-.1-.06Zm-.9-.27.18-.1h.24l.18.1v.14l-.18.1h-.24l-.18-.1Zm-1.89.64.1-.07h.16l.11.07v.09l-.11.07h-.16l-.1-.07Zm.67.55-.17.1h-.26l-.17-.1v-.15l.17-.1h.26l.17.1Zm.63-.1-.12.07H182l-.13-.07v-.11L182,120h.19l.12.08Zm-.3-.35-.34-.2v-.28l.34-.19h.47l.34.19v.28l-.34.2Zm1.07.59-.11.07h-.15l-.11-.07v-.09l.11-.06H183l.11.06Zm.22-.3-.17-.1v-.14l.17-.11h.25l.17.11V120l-.17.1Zm1.36.49-.27.16H184l-.28-.16v-.23l.28-.16h.39l.27.16Zm-.16-.89v-.27l.34-.2h.47l.35.2v.27l-.35.19h-.47Zm1.36.83-.23.13h-.32l-.23-.13v-.19l.23-.14h.32l.23.14Zm.13-1.41.11-.06h.15l.11.06v.09l-.11.06h-.15l-.11-.06Zm.64.59-.18.11h-.24l-.18-.11v-.13l.18-.11h.24l.18.11Z" transform="translate(-76.43 -56.72)"/><rect class="cls-25" x="103.91" y="65.19" width="7.21" height="16.71"/><polygon class="cls-28" points="103.91 81.9 98.81 78.97 98.81 62.25 103.91 65.19 103.91 81.9"/><polygon class="cls-26" points="111.12 81.9 116.22 78.97 116.22 62.25 111.12 65.19 111.12 81.9"/><rect class="cls-36" x="103.91" y="76.49" width="7.21" height="1.91"/><polygon class="cls-37" points="103.91 78.4 98.81 75.45 98.81 73.54 103.91 76.49 103.91 78.4"/><polygon class="cls-38" points="111.12 78.4 116.22 75.45 116.22 73.54 111.12 76.49 111.12 78.4"/><polygon class="cls-31" points="100.02 66.81 98.04 65.66 100.28 64.38 102.26 65.53 100.72 66.81 100.02 66.81"/><polygon class="cls-28" points="96.45 72.98 94.47 71.84 98.04 65.66 100.02 66.81 98.46 70.43 96.45 72.98"/><polygon class="cls-25" points="96.45 78.82 94.47 77.67 94.47 71.84 96.45 72.98 96.95 76.09 96.45 78.82"/><polygon class="cls-31" points="100.02 79.38 98.04 78.24 100.28 76.96 102.26 78.11 100.72 79.38 100.02 79.38"/><polygon class="cls-26" points="102.26 78.11 100.56 79.07 97.75 77.45 97.75 72.86 100.56 67.99 102.26 67.02 102.26 65.53 100.02 66.81 96.45 72.98 96.45 78.82 100.02 80.88 102.26 79.6 102.26 78.11"/><polygon class="cls-1" points="215.91 162.71 207.47 157.84 223.48 148.59 231.93 153.46 215.91 162.71"/><polygon class="cls-7" points="220.84 148.87 222.97 150.49 227.86 149.02 225.94 147.69 220.84 148.87"/><polygon class="cls-39" points="228.38 148.69 223.48 145.88 218.06 146.97 221.6 149.02 225.16 148.3 227.53 149.68 228.38 148.69"/><polygon class="cls-7" points="219 146.65 218.9 147.02 221.92 148.76 223.01 147.95 219 146.65"/><polygon class="cls-6" points="219 146.65 222.01 148.39 223.61 148.26 226.39 147.51 223.38 145.77 219 146.65"/><polygon class="cls-4" points="222.01 148.39 221.92 148.76 226.29 147.88 226.39 147.51 222.01 148.39"/><polygon class="cls-40" points="222.81 150.57 223.81 148.83 225.24 148.01 226.25 148.58 226.25 150.23 225.24 151.97 223.81 152.79 222.81 152.21 222.81 150.57"/><polygon class="cls-41" points="223.81 148.83 225.24 148.01 224.39 147.51 222.97 148.34 223.62 148.85 223.81 148.83"/><polygon class="cls-42" points="222.81 150.57 223.81 148.83 222.97 148.34 221.96 150.08 222.63 150.65 222.81 150.57"/><polygon class="cls-43" points="222.81 152.21 222.81 150.57 221.96 150.08 221.96 151.72 222.81 152.21"/><polygon class="cls-39" points="228.38 148.69 222.96 149.8 226.5 151.85 231.93 150.75 228.38 148.69"/><polygon class="cls-29" points="231.93 150.75 226.5 151.85 217.68 156.94 215.91 159.99 215.91 162.2 217.68 161.69 231.93 153.46 231.93 150.75"/><polygon class="cls-7" points="223.84 149.45 223.75 149.81 226.76 151.55 227.86 150.75 223.84 149.45"/><polygon class="cls-6" points="223.84 149.45 226.85 151.19 228.45 151.06 231.23 150.31 228.21 148.57 223.84 149.45"/><polygon class="cls-4" points="226.85 151.19 226.76 151.55 231.14 150.67 231.23 150.31 226.85 151.19"/><rect class="cls-39" x="287.24" y="207.88" width="3.53" height="9.75" transform="translate(-116.14 300.03) rotate(-60.02)"/><polygon class="cls-31" points="217.68 156.94 209.23 152.07 218.06 146.97 226.5 151.85 217.68 156.94"/><polygon class="cls-44" points="215.91 162.2 207.47 157.33 207.47 155.12 215.91 159.99 215.91 162.2"/><polygon class="cls-25" points="217.18 154.35 217.18 153.94 214.48 152.39 213.78 152.39 213.28 152.68 213.28 153.08 215.97 154.64 216.68 154.64 217.18 154.35"/><polygon class="cls-9" points="98.5 135.62 109.95 131.45 120.62 132.78 129.9 131.45 129.9 129.29 126.5 128.3 121.69 128.3 124.35 123.33 129.16 121.33 135.54 122.99 136.95 121.33 130.57 116.36 121.31 115.44 106.3 123.16 91.35 126.72 98.5 135.62"/><polygon class="cls-14" points="43.25 137.44 37.89 126.89 38.66 114.36 43.86 109.61 55.91 108.84 62.13 113.37 43.25 137.44"/><polygon class="cls-9" points="70.11 100.65 65.42 110.3 61.49 114.33 64.81 121.96 84.13 126.11 88.86 119.97 90.51 111.68 93.66 107.78 92.58 100.65 79.4 95.76 70.11 100.65"/><polygon class="cls-15" points="104.29 135.01 95.41 129.59 88.86 119.97 77.58 121.8 65.59 114.99 65.42 110.3 60 112.01 48.05 114.83 41.26 128.59 43.75 148.33 55.19 176.69 55.52 199.74 72.78 213.5 103.45 217.32 114.44 205.07 111.58 190.62 107.55 180.5 108.26 167.07 104.29 135.01"/><polygon class="cls-9" points="103.09 75.06 105.48 86.67 103.83 89.23 104.28 94.63 97.15 109.85 91.23 108.23 89.74 103.66 85.34 100.84 93.14 72.73 103.09 75.06"/><polygon class="cls-45" points="80.45 65.8 86.86 62.2 85.87 64.75 96.59 65.19 95.93 66.3 103.01 70.83 106.16 77.3 103.01 76.14 103.12 84.98 99.03 92.83 98.69 97.25 97.37 97.25 96.93 92.17 94.27 92.05 90.62 97.25 89.74 103.66 84.65 107.09 75.59 105.65 68.62 100.79 66.52 93.6 67.08 79.23 72.49 69.61 70.56 68.62 76.58 67.18 78.91 64.08 80.45 65.8"/><polygon class="cls-9" points="121.94 156.16 128.08 162.71 138 141.1 139.03 133.94 143.92 132.44 149.8 127.22 156.69 128.71 158.59 142.48 149.55 149.27 148.06 149.86 144.25 170.84 141.1 179.63 131.9 186.59 123.27 186.17 106.3 172.74 109.18 159.48 121.94 156.16"/><polygon class="cls-46" points="128.08 162.71 134.75 175.56 135.19 172.8 128.08 162.71"/><polygon class="cls-14" points="95.05 134.32 106.96 135.21 122.71 154.78 120.39 168.04 106.4 174.24 90.49 155.89 89.6 142.06 95.05 134.32"/><polygon class="cls-13" points="31.29 215.01 26.26 212.11 20.31 189.48 27.16 191.35 31.29 215.01"/><polygon class="cls-15" points="25.34 192.38 27.16 191.35 22.11 188.43 20.31 189.48 25.34 192.38"/><polygon class="cls-12" points="31.29 215.01 33.1 213.97 27.16 191.35 25.34 192.38 31.29 215.01"/><polygon class="cls-14" points="25.34 192.38 20.31 189.48 20.31 132.98 27.16 134.87 25.34 192.38"/><polygon class="cls-15" points="25.34 135.92 27.16 134.87 22.11 131.95 20.31 132.98 25.34 135.92"/><polygon class="cls-12" points="25.34 192.38 26.44 192.96 27.16 191.35 27.16 134.87 25.34 135.92 25.34 192.38"/><polygon class="cls-18" points="85.05 171.78 94.24 181.89 103.81 173.01 101.38 168.8 85.05 171.78"/><polygon class="cls-20" points="29.17 134.39 88.32 176.34 101.38 168.8 35.48 130.75 29.17 134.39"/><polygon class="cls-19" points="88.77 181.68 97.5 210.29 103.81 206.66 103.81 173.01 88.77 181.68"/><polygon class="cls-15" points="26.73 169.44 29.17 173.64 95.07 211.7 97.5 210.29 97.5 176.65 95.07 172.44 29.17 134.39 26.73 135.79 26.73 169.44"/><polygon class="cls-13" points="81.28 173.96 90.46 184.07 97.5 176.65 95.07 172.44 81.28 173.96"/><polygon class="cls-15" points="25.38 136.57 84.55 178.53 95.07 172.44 29.17 134.39 25.38 136.57"/><polygon class="cls-12" points="85.01 183.87 93.73 212.48 97.5 210.29 97.5 176.65 85.01 183.87"/><polygon class="cls-14" points="22.96 171.62 25.38 175.81 91.3 213.88 93.73 212.48 93.73 178.83 91.3 174.62 25.38 136.57 22.96 137.97 22.96 171.62"/><polygon class="cls-13" points="106.75 258.58 101.72 255.67 95.78 233.05 102.64 234.92 106.75 258.58"/><polygon class="cls-15" points="100.82 235.97 102.64 234.92 97.57 232 95.78 233.05 100.82 235.97"/><polygon class="cls-12" points="106.75 258.58 108.57 257.53 102.64 234.92 100.82 235.97 106.75 258.58"/><polygon class="cls-14" points="100.82 235.97 95.78 233.05 95.78 176.56 102.64 178.44 100.82 235.97"/><polygon class="cls-15" points="100.82 179.48 102.64 178.44 97.57 175.52 95.78 176.56 100.82 179.48"/><polygon class="cls-12" points="100.82 235.97 101.91 236.52 102.64 234.92 102.64 178.44 100.82 179.48 100.82 235.97"/></svg>